<?xml version="1.0" standalone="no"?>
<!DOCTYPE svg PUBLIC "-//W3C//DTD SVG 20010904//EN"
 "http://www.w3.org/TR/2001/REC-SVG-20010904/DTD/svg10.dtd">
<svg version="1.0" xmlns="http://www.w3.org/2000/svg"
 width="700.000000pt" height="700.000000pt" viewBox="0 0 700.000000 700.000000"
 preserveAspectRatio="xMidYMid meet">
<metadata>
Created by potrace 1.14, written by Peter Selinger 2001-2017
</metadata>
<g transform="translate(0.000000,700.000000) scale(0.100000,-0.100000)"
fill="#000000" stroke="none">
<path d="M440 4385 l0 -425 586 0 586 0 34 -34 c29 -29 34 -41 34 -81 0 -40
-5 -52 -34 -81 l-34 -34 -586 0 -586 0 0 -625 0 -625 620 0 620 0 0 199 0 199
57 7 c363 45 675 299 795 645 139 402 -6 855 -354 1103 -82 59 -213 121 -315
150 -76 21 -93 22 -750 25 l-673 3 0 -426z"/>
<path d="M2923 4803 c2 -5 235 -523 517 -1153 283 -630 518 -1151 523 -1157 7
-10 136 -13 583 -13 453 0 574 3 573 13 0 6 -233 530 -517 1162 l-517 1150
-583 3 c-321 1 -581 -1 -579 -5z"/>
<path d="M4362 4801 c1 -5 237 -529 522 -1165 l519 -1156 579 0 c547 0 579 1
574 18 -3 9 -237 532 -520 1162 l-514 1145 -582 3 c-351 1 -580 -1 -578 -7z"/>
<path d="M2822 4393 c-5 -10 -33 -71 -62 -136 l-53 -118 21 -72 c33 -113 42
-181 42 -311 0 -79 -7 -153 -19 -211 -65 -317 -279 -589 -575 -734 l-82 -40
-60 -132 c-32 -72 -61 -135 -62 -140 -2 -5 244 -8 578 -7 l582 3 139 309 c76
170 139 315 139 321 0 12 -563 1272 -573 1281 -3 3 -10 -3 -15 -13z"/>
</g>
</svg>
